<svg xmlns="http://www.w3.org/2000/svg" width="24" height="24" viewBox="0 0 24 24" fill="none" stroke="currentColor" stroke-linecap="round" stroke-linejoin="round" stroke-width="2"><path stroke-linejoin="miter" d="m 3,3 c 5,0 10,0 16,0 1,0 2,1 2,2 v 14 c 0,1 -1,2 -2,2 H 5 C 4,21 3,20 3,19 3,14 3,8 3,3 Z"/><path fill="currentColor" stroke="none" d="M12.63 11.5c-.58 0-1.07.19-1.41.56-.34.36-.5.85-.5 1.42 0 .5.09.91.28 1.22.2.3.52.55.94.75l.46.22c.18.08.34.2.46.34.08.1.12.26.12.44a1.08 1.06 0 0 1-.1.52c-.04.08-.11.12-.27.12-.15 0-.24-.05-.3-.15-.08-.1-.13-.3-.13-.56a.15.15 0 0 0-.15-.13H10.8a.15.15 0 0 0-.15.14c.02.66.18 1.18.51 1.56.34.37.82.55 1.42.55s1.1-.18 1.44-.54c.36-.36.52-.88.52-1.53 0-.53-.1-.98-.32-1.31a2.39 2.34 0 0 0-1.03-.83l-.44-.2a1 .98 0 0 1-.38-.27.76.74 0 0 1-.1-.4c0-.2.04-.32.1-.4.05-.05.13-.1.27-.1.15 0 .2.05.25.13.07.17.11.34.1.53 0 .08.07.15.15.15h1.18c.09 0 .15-.07.15-.15a2.37 2.32 0 0 0-.5-1.53 1.7 1.67 0 0 0-1.34-.55zm3.95 0a1.8 1.76 0 0 0-1.4.56c-.34.36-.5.85-.5 1.42 0 .5.08.91.28 1.22.2.3.52.55.94.75l.45.22h.01c.18.08.33.2.45.34.08.1.13.26.13.44 0 .26-.04.43-.1.52-.04.08-.12.12-.28.12-.15 0-.23-.05-.3-.15-.07-.1-.12-.3-.13-.56a.15.15 0 0 0-.15-.13h-1.22a.15.15 0 0 0-.15.14 2.44 2.4 0 0 0 .5 1.56c.34.37.83.55 1.43.55s1.09-.18 1.44-.54c.35-.36.52-.88.52-1.53 0-.53-.1-.98-.32-1.31a2.38 2.33 0 0 0-1.04-.83l-.43-.2a1 .98 0 0 1-.39-.27.76.74 0 0 1-.1-.4c0-.2.04-.32.1-.4.06-.05.13-.1.27-.1.16 0 .21.05.25.13a1 .98 0 0 1 .1.53c0 .08.07.15.16.15h1.18c.08 0 .15-.07.15-.15a2.38 2.33 0 0 0-.5-1.53 1.7 1.67 0 0 0-1.35-.55zm-8.04 0c-.6 0-1.1.18-1.47.52-.39.34-.57.85-.57 1.5v3c0 .64.17 1.14.54 1.47.35.34.84.51 1.42.51.36 0 .71-.07 1.03-.23.31-.14.57-.39.74-.68.18-.32.26-.7.26-1.15v-.2a.15.15 0 0 0-.15-.14h-1.3a.15.15 0 0 0-.15.15v.2a.93.91 0 0 1-.1.45c-.07.1-.14.13-.28.13-.15 0-.23-.05-.3-.15-.07-.1-.11-.3-.11-.54v-2.61c-.02-.2.02-.4.1-.6.06-.09.14-.13.31-.13a.3.3 0 0 1 .27.13c.07.08.11.22.11.45v.24c0 .07.07.14.15.14h1.3c.08 0 .15-.07.15-.14v-.25c0-.66-.17-1.18-.53-1.54a1.92 1.88 0 0 0-1.42-.52Z"/></svg>
